<?xml version="1.0" encoding="UTF-8"?>
<svg width="24px" height="24px" viewBox="0 0 24 24" xmlns="http://www.w3.org/2000/svg" xmlns:xlink="http://www.w3.org/1999/xlink" version="1.1">
 <!-- Generated by Pixelmator Pro 2.0.4 -->
 <path id="Path" d="M0 0 L24 0 24 24 0 24 Z M0 0 L24 0 24 24 0 24 Z M0.75 0.75 L23.25 0.75 23.25 23.25 0.75 23.25 Z" fill="none" stroke="none"/>
 <path id="Path-1" d="M11.871 21.7 L9.541 19.37 14.201 19.37 11.871 21.7 Z M2.32 17.729 L2.32 16.44 8.24 7.88 2.359 7.88 2.359 6.28 10.66 6.28 10.66 7.54 4.73 16.139 10.849 16.139 10.849 17.729 2.32 17.729 Z M12.22 17.729 L16.711 6.27 18.349 6.27 22.849 17.729 21.009 17.729 20.09 15.28 14.98 15.28 14.06 17.729 12.22 17.729 Z M15.599 13.639 L19.48 13.639 17.541 8.46 15.599 13.639 Z M9.509 4.661 L11.871 2.3 14.23 4.661 9.509 4.661 Z" fill="#000000" fill-opacity="1" stroke="none"/>
</svg>
